<?xml version="1.0" encoding="UTF-8"?>
<svg version="1.1" xmlns="http://www.w3.org/2000/svg" width="64" height="64">
<path d="M0 0 C0.81977325 -0.0033284 1.63954651 -0.0066568 2.48416138 -0.01008606 C4.21388185 -0.01513518 5.94361201 -0.01749501 7.67333984 -0.01733398 C10.3045271 -0.01951815 12.93529319 -0.03768873 15.56640625 -0.05664062 C17.25260274 -0.05957553 18.93880121 -0.06155968 20.625 -0.0625 C21.79408401 -0.07327827 21.79408401 -0.07327827 22.98678589 -0.08427429 C28.27281387 -0.06241879 33.86470889 0.14283138 38.1875 3.53515625 C41.41943588 7.83697435 42.5532901 10.88447074 42.60644531 16.18286133 C42.61605286 16.96079544 42.6256604 17.73872955 42.63555908 18.54023743 C42.63980896 19.37258408 42.64405884 20.20493073 42.6484375 21.0625 C42.65413757 21.92808029 42.65983765 22.79366058 42.66571045 23.68547058 C42.67514451 25.51531762 42.68168809 27.34518153 42.68554688 29.17504883 C42.69524161 31.96010321 42.72627532 34.74441588 42.7578125 37.52929688 C42.76434433 39.31119356 42.76959409 41.09309549 42.7734375 42.875 C42.7857843 43.70127396 42.7981311 44.52754791 42.81085205 45.37886047 C42.78627547 51.82695657 41.80118197 56.81209928 37.0703125 61.54296875 C32.03394821 64.66071807 26.66596655 64.327734 20.890625 64.3359375 C19.66096512 64.3409301 19.66096512 64.3409301 18.40646362 64.34602356 C16.67674315 64.35107268 14.94701299 64.35343251 13.21728516 64.35327148 C10.5860979 64.35545565 7.95533181 64.37362623 5.32421875 64.39257812 C3.63802226 64.39551303 1.95182379 64.39749718 0.265625 64.3984375 C-0.90345901 64.40921577 -0.90345901 64.40921577 -2.09616089 64.42021179 C-7.38218887 64.39835629 -12.97408389 64.19310612 -17.296875 60.80078125 C-20.52881088 56.49896315 -21.6626651 53.45146676 -21.71582031 48.15307617 C-21.72542786 47.37514206 -21.7350354 46.59720795 -21.74493408 45.79570007 C-21.74918396 44.96335342 -21.75343384 44.13100677 -21.7578125 43.2734375 C-21.76351257 42.40785721 -21.76921265 41.54227692 -21.77508545 40.65046692 C-21.78451951 38.82061988 -21.79106309 36.99075597 -21.79492188 35.16088867 C-21.80461661 32.37583429 -21.83565032 29.59152162 -21.8671875 26.80664062 C-21.87371933 25.02474394 -21.87896909 23.24284201 -21.8828125 21.4609375 C-21.8951593 20.63466354 -21.9075061 19.80838959 -21.92022705 18.95707703 C-21.89565047 12.50898093 -20.91055697 7.52383822 -16.1796875 2.79296875 C-11.14332321 -0.32478057 -5.77534155 0.0082035 0 0 Z " fill="#E60101" transform="translate(21.5546875,-0.16796875)"/>
<path d="M0 0 C1.26972656 0.00257812 2.53945313 0.00515625 3.84765625 0.0078125 C5.16636719 0.03617188 6.48507813 0.06453125 7.84375 0.09375 C9.16246094 0.09117188 10.48117188 0.08859375 11.83984375 0.0859375 C22.77449158 0.19694915 22.77449158 0.19694915 27.34375 3.59375 C28.86038393 6.62701785 28.51472474 9.472596 28.53125 12.84375 C28.54542969 14.14828125 28.55960938 15.4528125 28.57421875 16.796875 C28.34910875 20.50546685 27.89770666 23.22601113 26.34375 26.59375 C19.46071412 31.93229978 6.29457996 30.19513916 -1.83984375 29.20703125 C-8.19614362 28.05385638 -8.19614362 28.05385638 -10.65625 25.59375 C-11.80388976 21.48013215 -11.92066585 17.34698644 -12.03125 13.09375 C-12.08023437 11.8046875 -12.12921875 10.515625 -12.1796875 9.1875 C-11.14413521 2.077738 -6.74772328 -0.04135095 0 0 Z " fill="#FEF8F8" transform="translate(23.65625,17.40625)"/>
<path d="M0 0 C4.3785374 1.75141496 7.97072742 3.62983966 12 6 C12 6.66 12 7.32 12 8 C9.8828125 9.5078125 9.8828125 9.5078125 7.125 11.125 C6.22007813 11.66382813 5.31515625 12.20265625 4.3828125 12.7578125 C2 14 2 14 0 14 C0 9.38 0 4.76 0 0 Z " fill="#E70F0F" transform="translate(27,25)"/>
</svg>
